<svg width="46" height="51" viewBox="0 0 46 51" fill="none" xmlns="http://www.w3.org/2000/svg">
<path d="M39.2869 0H4.72933C3.49259 0 2.32848 0.800308 1.52807 2.10957C0.509557 3.71014 0 5.96548 0 8.87533C0 9.2392 0.290792 9.52999 0.65466 9.52999H0.87288L7.49352 9.5305V45.4704C7.49352 45.8343 7.78431 46.1251 8.14818 46.1251H29.101L28.3007 50.1266C28.2281 50.4174 28.3733 50.7087 28.5915 50.8544C28.8097 51 29.101 51 29.3192 50.8544L34.7031 47.2893L40.0869 50.8544C40.2326 50.9269 40.3051 51 40.4508 51C40.5964 51 40.7416 50.9274 40.8146 50.8544C41.0329 50.7087 41.1785 50.4179 41.1054 50.1266L40.3051 46.1251H44.8887C45.2526 46.1251 45.5434 45.8343 45.5434 45.4704V6.32937C45.6159 2.83736 42.7786 9.91179e-07 39.2866 9.91179e-07L39.2869 0ZM7.49393 8.22069H1.38282C1.52847 2.83684 3.63803 1.38179 4.72972 1.38179C5.23923 1.38179 6.11215 1.74565 6.83929 2.83671C7.27573 3.56445 7.56703 4.43728 7.56703 5.38332V8.22069H7.49393ZM34.7035 40.5957C31.9388 40.5957 29.6834 38.3405 29.6834 35.5756C29.6834 32.8108 31.9386 30.5556 34.7035 30.5556C37.4684 30.5556 39.7236 32.8108 39.7236 35.5756C39.7962 38.3399 37.5409 40.5957 34.7035 40.5957ZM35.0674 45.9065C34.8492 45.7609 34.5579 45.7609 34.2671 45.9065L29.9016 48.8164L30.5563 45.6151L31.4292 41.0316C32.3751 41.6137 33.4663 41.9045 34.6304 41.9045C35.7946 41.9045 36.8856 41.6137 37.8317 41.0316L38.7046 45.6151L39.3592 48.8164L35.0674 45.9065ZM44.2341 44.888H40.0869L39.141 40.2318C40.3777 39.0677 41.1055 37.3945 41.1055 35.5757C41.1055 32.0106 38.1956 29.1733 34.7031 29.1733C31.2111 29.1733 28.3007 32.0831 28.3007 35.5757C28.3007 37.3945 29.101 39.0677 30.2651 40.2318L29.3192 44.888H8.87564V5.45597C8.87564 4.29181 8.58485 3.12762 8.00276 2.18222C7.85712 1.89143 7.6389 1.6727 7.42068 1.45449H39.2864C42.0512 1.45449 44.2334 3.70969 44.2334 6.40142L44.2341 44.888Z" fill="black"/>
<path d="M38.414 7.56616H14.9148C14.5509 7.56616 14.2601 7.85695 14.2601 8.22082C14.2601 8.58469 14.5509 8.87548 14.9148 8.87548H38.414C38.7778 8.87548 39.0686 8.58469 39.0686 8.22082C39.0691 7.85746 38.7778 7.56616 38.414 7.56616Z" fill="black"/>
<path d="M38.414 12.8043H14.9148C14.5509 12.8043 14.2601 13.0951 14.2601 13.459C14.2601 13.8228 14.5509 14.1136 14.9148 14.1136H38.414C38.7778 14.1136 39.0686 13.8228 39.0686 13.459C39.0691 13.0951 38.7778 12.8043 38.414 12.8043Z" fill="black"/>
<path d="M38.414 17.9697H14.9148C14.5509 17.9697 14.2601 18.2605 14.2601 18.6244C14.2601 18.9883 14.5509 19.279 14.9148 19.279H38.414C38.7778 19.279 39.0686 18.9883 39.0686 18.6244C39.0691 18.2605 38.7778 17.9697 38.414 17.9697Z" fill="black"/>
<path d="M38.414 23.208H14.9148C14.5509 23.208 14.2601 23.4988 14.2601 23.8627C14.2601 24.2265 14.5509 24.5173 14.9148 24.5173H38.414C38.7778 24.5173 39.0686 24.2265 39.0686 23.8627C39.0691 23.4993 38.7778 23.208 38.414 23.208Z" fill="black"/>
<path d="M27.4283 28.3735H14.9148C14.5509 28.3735 14.2601 28.6643 14.2601 29.0282C14.2601 29.3921 14.5509 29.6829 14.9148 29.6829H27.4283C27.7922 29.6829 28.0829 29.3921 28.0829 29.0282C28.0829 28.6643 27.7922 28.3735 27.4283 28.3735Z" fill="black"/>
<path d="M25.2457 33.6117H14.9148C14.5509 33.6117 14.2601 33.9025 14.2601 34.2664C14.2601 34.6302 14.5509 34.921 14.9148 34.921H25.2457C25.6096 34.921 25.9004 34.6302 25.9004 34.2664C25.9004 33.9025 25.6096 33.6117 25.2457 33.6117Z" fill="black"/>
<path d="M25.9731 40.1594H14.9145C14.5507 40.1594 14.2599 39.8686 14.2599 39.5048C14.2599 39.1409 14.5507 38.8501 14.9145 38.8501H25.9731C26.337 38.8501 26.6278 39.1409 26.6278 39.5048C26.6278 39.8686 26.337 40.1594 25.9731 40.1594Z" fill="black"/>
</svg>
