<svg width="74" height="48" viewBox="0 0 74 48" fill="none" xmlns="http://www.w3.org/2000/svg">
<path d="M73.5404 14.6662L37.697 0.0657988C37.5215 -0.0219329 37.2587 -0.0219329 37.0832 0.0657988L1.59035 14.6662C1.23946 14.7539 1.06401 15.1061 1.06401 15.3699C1.06401 15.7214 1.23946 15.9859 1.58974 16.1613L5.70866 18.0087V18.0964V31.0255L0.187392 42.4596C-0.0754707 43.0756 -0.0754701 43.7786 0.274809 44.3946C0.625088 45.0105 1.23884 45.3621 1.94006 45.3621H10.5283C11.2295 45.3621 11.8426 45.0105 12.1936 44.3946C12.5438 43.7786 12.6319 43.0755 12.281 42.4596L6.7597 31.0255L6.76093 18.5362H6.93637L13.5091 21.4386V36.2144C13.5091 39.4685 16.0503 42.5471 20.783 44.7459C25.2523 46.8569 31.2119 48 37.5216 48C43.8314 48 49.7904 46.8564 54.2602 44.7459C58.9049 42.5471 61.534 39.4684 61.534 36.2144L61.5334 21.3502L73.452 16.1611C73.7149 16.0734 73.9777 15.7212 73.9777 15.3697C74.0651 15.1059 73.8903 14.7537 73.5394 14.666L73.5404 14.6662ZM11.2307 43.6907C11.0552 43.9545 10.7924 44.0423 10.5295 44.0423H1.94127C1.67841 44.0423 1.41554 43.8662 1.2401 43.6907C1.06465 43.4269 1.06465 43.1631 1.2401 42.8993L6.32303 32.4327L11.3186 42.8993C11.406 43.1625 11.3186 43.4269 11.2306 43.6907H11.2307ZM60.0443 36.2144C60.0443 37.5335 59.5186 38.7647 58.4672 39.9961C57.3277 41.2274 55.7506 42.371 53.7351 43.3385C49.4407 45.3612 43.7445 46.5048 37.61 46.5048C31.4754 46.5048 25.7787 45.3612 21.4848 43.3385C19.4693 42.3709 17.8915 41.2274 16.7527 39.9961C15.7013 38.7648 15.1756 37.5334 15.1756 36.2144L15.1737 22.1416L37.0829 31.8167C37.1703 31.9045 37.2584 31.9045 37.4332 31.9045C37.5206 31.9045 37.6961 31.9045 37.7835 31.8167L60.1308 22.0539L60.1315 36.2144H60.0443ZM60.482 20.119L37.3459 30.2339L14.648 20.2072L10.0033 18.1845L36.4696 14.5782C36.7324 14.9298 37.0833 15.1942 37.609 15.1942C38.3102 15.1942 38.9233 14.5782 38.9233 13.8752C38.9233 13.1715 38.3096 12.5561 37.609 12.5561C36.9953 12.5561 36.5576 12.9077 36.3821 13.4359L8.07549 17.306L4.04389 15.5471L37.5211 1.73812L71.1736 15.4576L60.482 20.119Z" fill="black"/>
</svg>
